<svg width="288" height="289" viewBox="0 0 288 289" fill="none" xmlns="http://www.w3.org/2000/svg">
<g clip-path="url(#clip0_2_2642)">
<rect y="0.5" width="288" height="288" rx="10" fill="#2C7DFA"/>
<circle cx="266.5" cy="340" r="135" fill="#3685FF"/>
<circle cx="32.5" r="164" fill="#3685FF"/>
<path fill-rule="evenodd" clip-rule="evenodd" d="M124.69 64.5H119.172V70.0172H124.69V64.5ZM152.276 64.5H146.759V70.0172H152.276V64.5ZM152.276 64.5H157.793V70.0172H152.276V64.5ZM168.828 64.5H163.31V70.0172H168.828V64.5ZM108.138 70.0172H113.655H113.655H119.172V75.5345V81.0517V86.569V92.0862V97.6035H113.655V103.121V108.638V114.155H108.138V108.638V103.121V97.6035H113.655V92.0862V86.569H108.138V81.0517V75.5345V70.0172ZM124.69 70.0172H130.207V75.5345L124.69 75.5345V81.0517H130.207V86.569H124.69V81.0517H119.172V75.5345L124.69 75.5345V70.0172ZM135.724 70.0172H130.207V75.5345V81.0517H135.724H141.241V75.5345V70.0172H135.724ZM146.759 70.0172H141.241V75.5345H146.759L146.759 81.0517H152.276V75.5345L146.759 75.5345V70.0172ZM163.31 70.0172H157.793V75.5345H163.31V70.0172ZM174.345 70.0172H179.862V75.5345V81.0517V86.569V92.0862V97.6035V103.121V108.638H174.345V103.121V97.6035V92.0862V86.569V81.0517V75.5345V70.0172ZM179.862 108.638H185.379V114.155H179.862L179.862 108.638ZM168.828 75.5345H163.31V81.0517H168.828V75.5345ZM152.276 81.0517H157.793H163.31V86.569H157.793V92.0862H152.276V86.569V81.0517ZM146.759 86.569H152.276V92.0862V97.6035H146.759V92.0862V86.569ZM146.759 97.6035L146.759 103.121H152.276V108.638H146.759H141.241V103.121V97.6035H146.759ZM168.828 86.569H174.345V92.0862H168.828V86.569ZM135.724 92.0862H130.207V97.6035V103.121H135.724V97.6035V92.0862ZM124.69 97.6035H119.172V103.121H124.69V108.638H119.172V114.155H124.69V108.638H130.207V103.121H124.69V97.6035ZM152.276 97.6035H157.793V103.121V108.638H163.31V114.155V119.672V125.19H157.793H152.276V119.672V114.155V108.638V103.121V97.6035ZM168.828 97.6035H163.31V103.121V108.638H168.828L168.828 114.155H163.31V119.672H168.828H174.345V114.155V108.638H168.828V103.121V97.6035ZM64 108.638H69.5172V114.155V119.672H64V114.155V108.638ZM69.5172 125.19L69.5172 119.672L75.0345 119.672V125.19H69.5172ZM69.5172 130.707H64V125.19H69.5172L69.5172 130.707ZM69.5172 130.707H75.0345V136.224H69.5172L69.5172 130.707ZM102.621 108.638H97.1035V114.155H102.621V108.638ZM185.379 108.638H190.897V114.155H185.379V108.638ZM190.897 114.155H196.414V119.672H190.897L190.897 114.155ZM207.448 108.638H201.931V114.155H196.414V119.672H201.931L201.931 114.155H207.448L207.448 119.672H212.965V114.155V108.638H207.448ZM218.483 108.638H212.966V114.155V119.672H218.483V114.155V108.638ZM80.5517 114.155H75.0345V119.672V125.19V130.707H80.5517V125.19H86.0689V119.672L80.5517 119.672V114.155ZM91.5862 114.155H97.1034V119.672H91.5862V114.155ZM91.5862 125.19H86.069V119.672L91.5862 119.672L91.5862 125.19ZM91.5862 136.224V130.707L91.5862 125.19H97.1034V130.707V136.224H91.5862ZM91.5862 136.224L91.5862 141.741V147.259H86.069V141.741V136.224H91.5862ZM141.241 114.155H135.724V119.672L130.207 119.672V125.19V130.707H135.724L135.724 136.224H141.241V130.707V125.19V119.672V114.155ZM97.1035 119.672H102.621H102.621H108.138V125.19V130.707H102.621V125.19H97.1035V119.672ZM102.621 136.224H97.1035V130.707H102.621L102.621 136.224ZM102.621 141.741L102.621 136.224H108.138V141.741H102.621ZM102.621 141.741L102.621 147.259H97.1035V141.741H102.621ZM108.138 119.672H113.655H113.655H119.172V125.19V130.707H113.655V136.224H108.138V130.707V125.19V119.672ZM113.655 136.224H119.172V141.741V147.259V152.776H113.655H108.138V147.259V141.741H113.655L113.655 136.224ZM141.241 119.672H146.759H152.276V125.19H146.759H141.241V119.672ZM119.172 125.19H124.69V130.707V136.224V141.741H119.172V136.224V130.707V125.19ZM179.862 125.19H174.345V130.707V136.224V141.741H179.862L179.862 147.259H185.379V141.741V136.224H179.862V130.707V125.19ZM185.379 125.19H190.897H196.414V130.707V136.224H190.897V141.741H185.379V136.224V130.707V125.19ZM190.897 141.741H196.414V147.259V152.776V158.293V163.81H190.897H185.379V158.293H190.897V152.776V147.259L190.897 141.741ZM201.931 125.19H207.448V130.707H201.931V125.19ZM152.276 130.707H146.759V136.224H152.276V130.707ZM152.276 130.707H157.793V136.224V141.741H152.276V136.224V130.707ZM157.793 141.741H163.31V147.259H157.793L157.793 141.741ZM174.345 130.707H168.828V136.224V141.741H163.31V147.259V152.776V158.293V163.81H168.828L168.828 169.328L163.31 169.328V174.845H168.828L168.828 169.328H174.345V163.81V158.293V152.776V147.259H168.828L168.828 141.741H174.345V136.224V130.707ZM224 130.707H218.483V136.224V141.741H224V136.224V130.707ZM75.0345 136.224H80.5517V141.741H75.0345V136.224ZM196.414 136.224H201.931V141.741H196.414V136.224ZM207.448 163.81H212.965V158.293V152.776V147.259V141.741H207.448H201.931L201.931 147.259H196.414V152.776H201.931L201.931 158.293H196.414V163.81H201.931L201.931 169.328L196.414 169.328V174.845V180.362V185.879V191.397V196.914V202.431H201.931L201.931 207.948H196.414V213.466H201.931L201.931 218.983H196.414V224.5H201.931H207.448H212.965V218.983V213.466V207.948V202.431H207.448V196.914H201.931V191.397H207.448H212.965V185.879H207.448L207.448 180.362H212.965V174.845H207.448V180.362H201.931V174.845L201.931 169.328H207.448L207.448 163.81ZM207.448 163.81L207.448 158.293H201.931L201.931 163.81H207.448ZM201.931 152.776L201.931 147.259H207.448L207.448 152.776H201.931ZM218.483 136.224H212.966V141.741H218.483V136.224ZM69.5172 141.741H64V147.259H69.5172H75.0345V141.741H69.5172ZM124.69 147.259H119.172V152.776H124.69L124.69 158.293V163.81V169.328L119.172 169.328V174.845H124.69L124.69 180.362H119.172V185.879H124.69L124.69 180.362H130.207V174.845H124.69L124.69 169.328H130.207V163.81V158.293V152.776H124.69V147.259ZM146.759 147.259H152.276V152.776H146.759V147.259ZM218.483 147.259H224V152.776H218.483V147.259ZM69.5172 152.776H64V158.293V163.81V169.328V174.845V180.362H69.5172V174.845V169.328H75.0345V163.81H69.5172V158.293V152.776ZM86.069 152.776H91.5862H97.1034V158.293H91.5862H86.069V152.776ZM97.1035 152.776H102.621V158.293H97.1035V152.776ZM102.621 163.81L102.621 158.293H108.138V163.81H102.621ZM102.621 163.81L102.621 169.328H97.1035V163.81H102.621ZM152.276 152.776H157.793H163.31V158.293V163.81H157.793L157.793 158.293H152.276V152.776ZM113.655 158.293H108.138V163.81V169.328H113.655L113.655 174.845V180.362H108.138V185.879H113.655H119.172V180.362V174.845V169.328V163.81V158.293H113.655ZM135.724 158.293H141.241V163.81H135.724V158.293ZM146.759 158.293H141.241V163.81H146.759L146.759 169.328H152.276V163.81H146.759V158.293ZM179.862 158.293H174.345V163.81H179.862V158.293ZM212.966 158.293H218.483V163.81H212.966V158.293ZM224 158.293H218.483V163.81V169.328H224V163.81V158.293ZM80.5517 163.81H86.0689V169.328V174.845H80.5517H75.0345V169.328L80.5517 169.328V163.81ZM91.5862 163.81H86.069V169.328H91.5862L91.5862 174.845H86.069V180.362H91.5862L91.5862 174.845H97.1034V169.328V163.81H91.5862ZM135.724 169.328H130.207V174.845H135.724H141.241V169.328H135.724ZM174.345 169.328H179.862H185.379V174.845V180.362H179.862V185.879V191.397V196.914H185.379V202.431V207.948V213.466V218.983V224.5H179.862V218.983V213.466V207.948L179.862 202.431H174.345V196.914V191.397V185.879V180.362V174.845V169.328ZM185.379 169.328H190.897H196.414V174.845V180.362H190.897H185.379V174.845V169.328ZM102.621 174.845H97.1035V180.362H102.621H108.138V174.845H102.621ZM146.759 174.845H141.241V180.362V185.879H146.759V180.362H152.276V174.845H146.759ZM163.31 174.845H157.793V180.362V185.879H163.31V180.362V174.845ZM212.966 174.845H218.483V180.362H212.966V174.845ZM224 174.845H218.483V180.362H224V174.845ZM168.828 180.362H163.31V185.879V191.397H168.828L168.828 196.914V202.431H163.31V207.948H168.828L168.828 213.466V218.983H163.31V224.5H168.828H174.345V218.983V213.466V207.948H168.828L168.828 202.431H174.345V196.914V191.397V185.879H168.828V180.362ZM135.724 185.879H130.207V191.397H135.724V185.879ZM190.897 185.879H185.379V191.397H190.897V185.879ZM124.69 191.397H119.172V196.914H124.69H130.207V191.397H124.69ZM146.759 191.397H141.241V196.914V202.431V207.948H146.759L146.759 213.466V218.983H141.241V224.5H146.759L146.759 218.983H152.276V213.466V207.948H146.759V202.431V196.914H152.276V191.397H146.759ZM157.793 191.397H152.276V196.914V202.431H157.793L157.793 207.948H152.276V213.466H157.793H163.31V207.948V202.431H157.793V196.914V191.397ZM224 191.397H218.483V196.914H224V191.397ZM130.207 196.914H135.724H141.241V202.431V207.948H135.724L135.724 202.431H130.207V196.914ZM190.897 196.914H185.379V202.431H190.897L190.897 207.948H185.379V213.466H190.897L190.897 218.983H185.379V224.5H190.897H196.414V218.983V213.466V207.948V202.431V196.914H190.897ZM119.172 202.431H113.655V207.948V213.466H119.172V207.948V202.431ZM119.172 202.431H124.69H130.207V207.948H124.69V213.466H119.172V207.948V202.431ZM212.966 202.431H218.483V207.948V213.466H212.966V207.948V202.431ZM130.207 213.466H135.724V218.983H130.207V213.466ZM135.724 218.983H141.241V224.5H135.724L135.724 218.983ZM224 213.466H218.483V218.983H224V213.466ZM108.138 218.983H113.655H119.172V224.5H113.655H108.138V218.983ZM124.69 218.983H130.207V224.5H124.69V218.983ZM163.31 218.983H157.793V224.5H163.31V218.983Z" fill="white"/>
<path fill-rule="evenodd" clip-rule="evenodd" d="M69.7931 64.5H96.8276H102.621V70.2931V97.3276V103.121H96.8276H69.7931H64V97.3276V70.2931V64.5H69.7931ZM69.7931 97.3276H96.8276V70.2931H69.7931V97.3276Z" fill="white"/>
<path fill-rule="evenodd" clip-rule="evenodd" d="M191.172 64.5H218.207H224V70.2931V97.3276V103.121H218.207H191.172H185.379V97.3276V70.2931V64.5H191.172ZM191.172 97.3276H218.207V70.2931H191.172V97.3276Z" fill="white"/>
<path fill-rule="evenodd" clip-rule="evenodd" d="M69.7931 185.879H96.8276H102.621V191.672V218.707V224.5H96.8276H69.7931H64V218.707V191.672V185.879H69.7931ZM69.7931 218.707H96.8276V191.672H69.7931V218.707Z" fill="white"/>
<rect x="75.0345" y="75.5345" width="16.5517" height="16.5517" fill="white"/>
<rect x="196.414" y="75.5345" width="16.5517" height="16.5517" fill="white"/>
<rect x="75.0345" y="196.914" width="16.5517" height="16.5517" fill="white"/>
</g>
<defs>
<clipPath id="clip0_2_2642">
<rect y="0.5" width="288" height="288" rx="10" fill="white"/>
</clipPath>
</defs>
</svg>
